<svg width="24" height="24" viewBox="0 0 24 24" fill="none" xmlns="http://www.w3.org/2000/svg">
<path d="M12.15 16.5V18.6" stroke="black" stroke-width="2" stroke-linecap="round" stroke-linejoin="round"/>
<path d="M7.15 22H17.15V21C17.15 19.9 16.25 19 15.15 19H9.15C8.05 19 7.15 19.9 7.15 21V22V22Z" stroke="black" stroke-width="2" stroke-miterlimit="10"/>
<path d="M6.15 22H18.15" stroke="black" stroke-width="2" stroke-linecap="round" stroke-linejoin="round"/>
<path d="M12 16C8.13 16 5 12.87 5 9V6C5 3.79 6.79 2 9 2H15C17.21 2 19 3.79 19 6V9C19 12.87 15.87 16 12 16Z" stroke="black" stroke-width="2" stroke-linecap="round" stroke-linejoin="round"/>
<path d="M5.47 11.65C4.72 11.41 4.06 10.97 3.54 10.45C2.64 9.45001 2.04 8.25001 2.04 6.85001C2.04 5.45001 3.14 4.35001 4.54 4.35001H5.19C4.99 4.81001 4.89 5.32001 4.89 5.85001V8.85001C4.89 9.85001 5.1 10.79 5.47 11.65Z" stroke="black" stroke-width="2" stroke-linecap="round" stroke-linejoin="round"/>
<path d="M18.53 11.65C19.28 11.41 19.94 10.97 20.46 10.45C21.36 9.45001 21.96 8.25001 21.96 6.85001C21.96 5.45001 20.86 4.35001 19.46 4.35001H18.81C19.01 4.81001 19.11 5.32001 19.11 5.85001V8.85001C19.11 9.85001 18.9 10.79 18.53 11.65Z" stroke="black" stroke-width="2" stroke-linecap="round" stroke-linejoin="round"/>
</svg>
