<svg width="137" height="46" viewBox="0 0 137 46" fill="none" xmlns="http://www.w3.org/2000/svg">
<path d="M25.3283 36.9283C25.3696 32.7062 24.2992 29.2727 22.9376 29.2594C21.5759 29.2462 20.4386 32.6581 20.3974 36.8801C20.3561 41.1023 21.4265 44.5358 22.7881 44.5491C24.1498 44.5624 25.2871 41.1505 25.3283 36.9283Z" fill="#FF6B18"/>
<path d="M17.4312 35.9694C19.7488 32.4399 20.7048 28.9728 19.5665 28.2254C18.4282 27.478 15.6267 29.7333 13.3093 33.2628C10.9917 36.7923 10.0357 40.2593 11.1739 41.0068C12.3123 41.7542 15.1137 39.4989 17.4312 35.9694Z" fill="#FF6B18"/>
<path d="M11.2969 30.9056C15.1548 29.1896 17.8336 26.7898 17.2801 25.5456C16.7267 24.3014 13.1507 24.684 9.29273 26.4C5.43484 28.116 2.75605 30.5158 3.30947 31.76C3.86289 33.0042 7.43897 32.6216 11.2969 30.9056Z" fill="#FF6B18"/>
<path d="M16.8171 22.0566C17.0242 20.7107 13.8091 19.0989 9.636 18.4566C5.46277 17.8142 1.91181 18.3846 1.70466 19.7305C1.49752 21.0764 4.71262 22.688 8.88582 23.3304C13.059 23.9727 16.61 23.4023 16.8171 22.0566Z" fill="#FF6B18"/>
<path d="M18.3154 18.8503C19.2172 17.8301 17.3834 14.7362 14.2196 11.94C11.0558 9.1439 7.76005 7.70432 6.85828 8.72465C5.95652 9.74501 7.79026 12.8389 10.9541 15.635C14.1179 18.4312 17.4137 19.8707 18.3154 18.8503Z" fill="#FF6B18"/>
<path d="M21.2993 16.9766C22.6096 16.6058 22.7397 13.0117 21.5901 8.94888C20.4405 4.88608 18.4463 1.8931 17.136 2.26386C15.8258 2.63463 15.6956 6.22874 16.8452 10.2916C17.9948 14.3543 19.989 17.3473 21.2993 16.9766Z" fill="#FF6B18"/>
<path d="M29.4017 10.418C30.6313 6.37864 30.5721 2.78265 29.2694 2.38613C27.9666 1.98959 25.9138 4.94266 24.6843 8.982C23.4548 13.0213 23.514 16.6173 24.8167 17.0138C26.1195 17.4104 28.1723 14.4573 29.4017 10.418Z" fill="#FF6B18"/>
<path d="M35.1913 15.876C38.4092 13.1422 40.3031 10.0848 39.4214 9.04704C38.5397 8.00928 35.2164 9.38419 31.9986 12.1179C28.7807 14.8517 26.8869 17.9091 27.7686 18.9469C28.6502 19.9846 31.9735 18.6098 35.1913 15.876Z" fill="#FF6B18"/>
<path d="M37.1056 23.5998C41.2907 23.0398 44.5369 21.4919 44.3563 20.1421C44.1758 18.7925 40.6368 18.1523 36.4517 18.7121C32.2667 19.272 29.0204 20.82 29.201 22.1697C29.3816 23.5194 32.9205 24.1597 37.1056 23.5998Z" fill="#FF6B18"/>
<path d="M42.5043 32.1457C43.0822 30.9127 40.4513 28.4607 36.6279 26.6689C32.8047 24.8771 29.2368 24.4242 28.659 25.6571C28.0811 26.8902 30.7121 29.3423 34.5354 31.1341C38.3586 32.9258 41.9265 33.3788 42.5043 32.1457Z" fill="#FF6B18"/>
<path d="M34.4622 41.2435C35.615 40.5187 34.7275 37.0334 32.4801 33.4589C30.2326 29.8845 27.4761 27.5744 26.3233 28.2992C25.1706 29.024 26.058 32.5093 28.3055 36.0838C30.5529 39.6583 33.3094 41.9684 34.4622 41.2435Z" fill="#FF6B18"/>
<path d="M77.912 13.344V33H73.124V20.708L68.868 33H64.724L60.44 20.68V33H55.652V13.344H61.504L66.852 27.036L72.088 13.344H77.912ZM87.1544 17.18C88.3491 17.18 89.3757 17.4507 90.2344 17.992C91.0931 18.5333 91.7277 19.2707 92.1384 20.204V17.376H96.8984V33H92.1384V30.172C91.7277 31.1053 91.0931 31.8427 90.2344 32.384C89.3757 32.9253 88.3491 33.196 87.1544 33.196C85.8664 33.196 84.7091 32.8787 83.6824 32.244C82.6744 31.5907 81.8717 30.6573 81.2744 29.444C80.6957 28.2307 80.4064 26.812 80.4064 25.188C80.4064 23.5453 80.6957 22.1267 81.2744 20.932C81.8717 19.7187 82.6744 18.7947 83.6824 18.16C84.7091 17.5067 85.8664 17.18 87.1544 17.18ZM88.6944 21.38C87.6677 21.38 86.8371 21.716 86.2024 22.388C85.5864 23.06 85.2784 23.9933 85.2784 25.188C85.2784 26.3827 85.5864 27.316 86.2024 27.988C86.8371 28.66 87.6677 28.996 88.6944 28.996C89.7024 28.996 90.5237 28.6507 91.1584 27.96C91.8117 27.2693 92.1384 26.3453 92.1384 25.188C92.1384 24.012 91.8117 23.088 91.1584 22.416C90.5237 21.7253 89.7024 21.38 88.6944 21.38ZM106.131 17.18C107.326 17.18 108.352 17.4507 109.211 17.992C110.07 18.5333 110.704 19.2707 111.115 20.204V17.376H115.875V32.916C115.875 34.372 115.595 35.6787 115.035 36.836C114.475 38.012 113.616 38.9453 112.459 39.636C111.302 40.3267 109.864 40.672 108.147 40.672C105.795 40.672 103.91 40.112 102.491 38.992C101.091 37.8907 100.251 36.388 99.971 34.484H104.703C104.852 35.1187 105.188 35.6133 105.711 35.968C106.252 36.3227 106.952 36.5 107.811 36.5C108.8 36.5 109.594 36.2107 110.191 35.632C110.807 35.072 111.115 34.1667 111.115 32.916V30.172C110.704 31.1053 110.07 31.8427 109.211 32.384C108.352 32.9253 107.326 33.196 106.131 33.196C104.843 33.196 103.686 32.8787 102.659 32.244C101.651 31.5907 100.848 30.6573 100.251 29.444C99.6723 28.2307 99.383 26.812 99.383 25.188C99.383 23.5453 99.6723 22.1267 100.251 20.932C100.848 19.7187 101.651 18.7947 102.659 18.16C103.686 17.5067 104.843 17.18 106.131 17.18ZM107.671 21.38C106.644 21.38 105.814 21.716 105.179 22.388C104.563 23.06 104.255 23.9933 104.255 25.188C104.255 26.3827 104.563 27.316 105.179 27.988C105.814 28.66 106.644 28.996 107.671 28.996C108.679 28.996 109.5 28.6507 110.135 27.96C110.788 27.2693 111.115 26.3453 111.115 25.188C111.115 24.012 110.788 23.088 110.135 22.416C109.5 21.7253 108.679 21.38 107.671 21.38ZM125.108 17.18C126.302 17.18 127.329 17.4507 128.188 17.992C129.046 18.5333 129.681 19.2707 130.092 20.204V17.376H134.852V33H130.092V30.172C129.681 31.1053 129.046 31.8427 128.188 32.384C127.329 32.9253 126.302 33.196 125.108 33.196C123.82 33.196 122.662 32.8787 121.636 32.244C120.628 31.5907 119.825 30.6573 119.228 29.444C118.649 28.2307 118.36 26.812 118.36 25.188C118.36 23.5453 118.649 22.1267 119.228 20.932C119.825 19.7187 120.628 18.7947 121.636 18.16C122.662 17.5067 123.82 17.18 125.108 17.18ZM126.648 21.38C125.621 21.38 124.79 21.716 124.156 22.388C123.54 23.06 123.232 23.9933 123.232 25.188C123.232 26.3827 123.54 27.316 124.156 27.988C124.79 28.66 125.621 28.996 126.648 28.996C127.656 28.996 128.477 28.6507 129.112 27.96C129.765 27.2693 130.092 26.3453 130.092 25.188C130.092 24.012 129.765 23.088 129.112 22.416C128.477 21.7253 127.656 21.38 126.648 21.38Z" fill="black"/>
</svg>
